<svg width="55" height="11" viewBox="0 0 55 11" fill="none" xmlns="http://www.w3.org/2000/svg">
<path d="M7.98724 0.676C8.27657 0.825333 8.42124 1.06333 8.42124 1.39C8.42124 1.586 8.35124 1.77733 8.21124 1.964C8.0619 2.16 7.87057 2.258 7.63724 2.258C7.47857 2.258 7.3199 2.216 7.16124 2.132C6.7039 1.91733 6.20924 1.81 5.67724 1.81C5.0239 1.81 4.45457 1.95 3.96924 2.23C3.4839 2.50067 3.11057 2.888 2.84924 3.392C2.5879 3.88667 2.45724 4.456 2.45724 5.1C2.45724 6.20133 2.75124 7.03667 3.33924 7.606C3.93657 8.17533 4.7159 8.46 5.67724 8.46C6.24657 8.46 6.74124 8.35267 7.16124 8.138C7.32924 8.06333 7.47857 8.026 7.60924 8.026C7.8519 8.026 8.05724 8.12867 8.22524 8.334C8.36524 8.51133 8.43524 8.70267 8.43524 8.908C8.43524 9.05733 8.3979 9.19267 8.32324 9.314C8.24857 9.43533 8.14124 9.52867 8.00124 9.594C7.27324 9.958 6.49857 10.14 5.67724 10.14C4.76257 10.14 3.92257 9.94867 3.15724 9.566C2.3919 9.174 1.78057 8.6 1.32324 7.844C0.865903 7.088 0.637236 6.17333 0.637236 5.1C0.637236 4.148 0.851903 3.294 1.28124 2.538C1.7199 1.782 2.3219 1.194 3.08724 0.773999C3.85257 0.344666 4.7159 0.129999 5.67724 0.129999C6.5079 0.129999 7.2779 0.312 7.98724 0.676ZM16.9606 6.262C16.9606 7.00867 16.7926 7.68067 16.4566 8.278C16.1206 8.866 15.6586 9.32333 15.0706 9.65C14.4919 9.97667 13.8526 10.14 13.1526 10.14C12.4432 10.14 11.7992 9.97667 11.2206 9.65C10.6419 9.32333 10.1846 8.866 9.84858 8.278C9.51258 7.68067 9.34458 7.00867 9.34458 6.262C9.34458 5.51533 9.51258 4.848 9.84858 4.26C10.1846 3.66267 10.6419 3.20067 11.2206 2.874C11.7992 2.538 12.4432 2.37 13.1526 2.37C13.8526 2.37 14.4919 2.538 15.0706 2.874C15.6586 3.20067 16.1206 3.66267 16.4566 4.26C16.7926 4.848 16.9606 5.51533 16.9606 6.262ZM15.2806 6.262C15.2806 5.80467 15.1826 5.39867 14.9866 5.044C14.7999 4.68 14.5432 4.4 14.2166 4.204C13.8992 4.008 13.5446 3.91 13.1526 3.91C12.7606 3.91 12.4012 4.008 12.0746 4.204C11.7572 4.4 11.5006 4.68 11.3046 5.044C11.1179 5.39867 11.0246 5.80467 11.0246 6.262C11.0246 6.71933 11.1179 7.12533 11.3046 7.48C11.5006 7.83467 11.7572 8.11 12.0746 8.306C12.4012 8.502 12.7606 8.6 13.1526 8.6C13.5446 8.6 13.8992 8.502 14.2166 8.306C14.5432 8.11 14.7999 7.83467 14.9866 7.48C15.1826 7.12533 15.2806 6.71933 15.2806 6.262ZM24.4262 2.37C24.6689 2.37 24.8695 2.44933 25.0282 2.608C25.1869 2.76667 25.2662 2.972 25.2662 3.224V9.146C25.2662 9.38867 25.1869 9.594 25.0282 9.762C24.8695 9.92067 24.6689 10 24.4262 10C24.1835 10 23.9829 9.92067 23.8242 9.762C23.6749 9.60333 23.5955 9.40267 23.5862 9.16C23.3529 9.43067 23.0355 9.664 22.6342 9.86C22.2422 10.0467 21.8269 10.14 21.3882 10.14C20.7442 10.14 20.1609 9.97667 19.6382 9.65C19.1155 9.314 18.7002 8.852 18.3922 8.264C18.0935 7.676 17.9442 7.00867 17.9442 6.262C17.9442 5.51533 18.0935 4.848 18.3922 4.26C18.6909 3.66267 19.0969 3.20067 19.6102 2.874C20.1329 2.538 20.7069 2.37 21.3322 2.37C21.7802 2.37 22.2002 2.454 22.5922 2.622C22.9842 2.78067 23.3155 2.986 23.5862 3.238V3.224C23.5862 2.98133 23.6655 2.78067 23.8242 2.622C23.9829 2.454 24.1835 2.37 24.4262 2.37ZM21.5982 8.6C22.2049 8.6 22.6995 8.38067 23.0822 7.942C23.4649 7.494 23.6562 6.934 23.6562 6.262C23.6562 5.59 23.4649 5.03 23.0822 4.582C22.6995 4.134 22.2049 3.91 21.5982 3.91C21.0009 3.91 20.5109 4.134 20.1282 4.582C19.7455 5.03 19.5542 5.59 19.5542 6.262C19.5542 6.934 19.7409 7.494 20.1142 7.942C20.4969 8.38067 20.9915 8.6 21.5982 8.6ZM32.5081 2.51C32.7508 2.51 32.9515 2.594 33.1101 2.762C33.2688 2.92067 33.3481 3.12133 33.3481 3.364V6.92C33.3481 7.928 33.0681 8.71667 32.5081 9.286C31.9575 9.85533 31.1688 10.14 30.1421 10.14C29.1155 10.14 28.3268 9.85533 27.7761 9.286C27.2255 8.71667 26.9501 7.928 26.9501 6.92V3.364C26.9501 3.12133 27.0295 2.92067 27.1881 2.762C27.3468 2.594 27.5475 2.51 27.7901 2.51C28.0328 2.51 28.2335 2.594 28.3921 2.762C28.5508 2.92067 28.6301 3.12133 28.6301 3.364V6.92C28.6301 7.48933 28.7561 7.914 29.0081 8.194C29.2601 8.46467 29.6381 8.6 30.1421 8.6C30.6555 8.6 31.0381 8.46467 31.2901 8.194C31.5421 7.914 31.6681 7.48933 31.6681 6.92V3.364C31.6681 3.12133 31.7475 2.92067 31.9061 2.762C32.0648 2.594 32.2655 2.51 32.5081 2.51ZM38.7789 8.418C38.9096 8.418 39.0263 8.48333 39.1289 8.614C39.2409 8.73533 39.2969 8.89867 39.2969 9.104C39.2969 9.356 39.1569 9.57067 38.8769 9.748C38.6063 9.916 38.2983 10 37.9529 10C37.3743 10 36.8843 9.87867 36.4829 9.636C36.0909 9.384 35.8949 8.85667 35.8949 8.054V4.19H35.2509C35.0269 4.19 34.8403 4.11533 34.6909 3.966C34.5416 3.81667 34.4669 3.63 34.4669 3.406C34.4669 3.19133 34.5416 3.014 34.6909 2.874C34.8403 2.72467 35.0269 2.65 35.2509 2.65H35.8949V1.754C35.8949 1.51133 35.9743 1.31067 36.1329 1.152C36.3009 0.984 36.5063 0.899999 36.7489 0.899999C36.9823 0.899999 37.1783 0.984 37.3369 1.152C37.4956 1.31067 37.5749 1.51133 37.5749 1.754V2.65H38.5689C38.7929 2.65 38.9796 2.72467 39.1289 2.874C39.2783 3.02333 39.3529 3.21 39.3529 3.434C39.3529 3.64867 39.2783 3.83067 39.1289 3.98C38.9796 4.12 38.7929 4.19 38.5689 4.19H37.5749V7.984C37.5749 8.18 37.6263 8.32467 37.7289 8.418C37.8316 8.502 37.9716 8.544 38.1489 8.544C38.2236 8.544 38.3263 8.52533 38.4569 8.488C38.5689 8.44133 38.6763 8.418 38.7789 8.418ZM48.0231 6.262C48.0231 7.00867 47.8551 7.68067 47.5191 8.278C47.1831 8.866 46.7211 9.32333 46.1331 9.65C45.5544 9.97667 44.9151 10.14 44.2151 10.14C43.5057 10.14 42.8617 9.97667 42.2831 9.65C41.7044 9.32333 41.2471 8.866 40.9111 8.278C40.5751 7.68067 40.4071 7.00867 40.4071 6.262C40.4071 5.51533 40.5751 4.848 40.9111 4.26C41.2471 3.66267 41.7044 3.20067 42.2831 2.874C42.8617 2.538 43.5057 2.37 44.2151 2.37C44.9151 2.37 45.5544 2.538 46.1331 2.874C46.7211 3.20067 47.1831 3.66267 47.5191 4.26C47.8551 4.848 48.0231 5.51533 48.0231 6.262ZM46.3431 6.262C46.3431 5.80467 46.2451 5.39867 46.0491 5.044C45.8624 4.68 45.6057 4.4 45.2791 4.204C44.9617 4.008 44.6071 3.91 44.2151 3.91C43.8231 3.91 43.4637 4.008 43.1371 4.204C42.8197 4.4 42.5631 4.68 42.3671 5.044C42.1804 5.39867 42.0871 5.80467 42.0871 6.262C42.0871 6.71933 42.1804 7.12533 42.3671 7.48C42.5631 7.83467 42.8197 8.11 43.1371 8.306C43.4637 8.502 43.8231 8.6 44.2151 8.6C44.6071 8.6 44.9617 8.502 45.2791 8.306C45.6057 8.11 45.8624 7.83467 46.0491 7.48C46.2451 7.12533 46.3431 6.71933 46.3431 6.262ZM53.3187 2.37C53.5987 2.37 53.832 2.44933 54.0187 2.608C54.2147 2.76667 54.3127 2.95333 54.3127 3.168C54.3127 3.45733 54.238 3.67667 54.0887 3.826C53.9394 3.966 53.762 4.036 53.5567 4.036C53.4167 4.036 53.258 4.00333 53.0807 3.938C53.0527 3.92867 52.9874 3.91 52.8847 3.882C52.7914 3.854 52.6887 3.84 52.5767 3.84C52.334 3.84 52.1007 3.91467 51.8767 4.064C51.6527 4.21333 51.466 4.442 51.3167 4.75C51.1767 5.04867 51.1067 5.408 51.1067 5.828V9.146C51.1067 9.38867 51.0274 9.594 50.8687 9.762C50.71 9.92067 50.5094 10 50.2667 10C50.024 10 49.8234 9.92067 49.6647 9.762C49.506 9.594 49.4267 9.38867 49.4267 9.146V3.364C49.4267 3.12133 49.506 2.92067 49.6647 2.762C49.8234 2.594 50.024 2.51 50.2667 2.51C50.5094 2.51 50.71 2.594 50.8687 2.762C51.0274 2.92067 51.1067 3.12133 51.1067 3.364V3.546C51.3214 3.16333 51.6294 2.874 52.0307 2.678C52.432 2.47267 52.8614 2.37 53.3187 2.37Z" fill="#ED7839"/>
</svg>
