<svg width="59" height="57" viewBox="0 0 59 57" fill="none" xmlns="http://www.w3.org/2000/svg">
<g filter="url(#filter0_d_302_453)">
<path d="M15.8603 18.0563C23.8603 16.0563 24.8603 8.55636 29.3603 3.55638C37.9103 -5.94368 51.1802 5.55627 45.8603 15.0563C42.3624 21.3025 57.3603 21.5563 54.3603 38.0563C51.3603 54.5563 32.8603 49.0563 29.3603 42.5563C25.8603 36.0563 20.3603 41.5563 9.86026 38.0563C-0.639738 34.5563 5.86026 20.5563 15.8603 18.0563Z" fill="#F4F4F4"/>
<path d="M44.1414 33.6881H36.922C34.9315 33.6881 33.3132 35.3064 33.3132 37.2968V39.2656C33.3132 39.809 33.7542 40.25 34.2976 40.25H46.7657C47.3091 40.25 47.7501 39.809 47.7501 39.2656V37.2968C47.7501 35.3064 46.1318 33.6881 44.1414 33.6881Z" fill="#4D4D4D"/>
<path d="M27.0781 33.6881H19.8587C17.8683 33.6881 16.25 35.3064 16.25 37.2968V39.2656C16.25 39.809 16.691 40.25 17.2344 40.25H29.7025C30.2458 40.25 30.6868 39.809 30.6868 39.2656V37.2968C30.6868 35.3064 29.0685 33.6881 27.0781 33.6881Z" fill="#4D4D4D"/>
<path d="M40.5305 31.0618C42.7051 31.0618 44.468 29.2989 44.468 27.1243C44.468 24.9496 42.7051 23.1868 40.5305 23.1868C38.3559 23.1868 36.593 24.9496 36.593 27.1243C36.593 29.2989 38.3559 31.0618 40.5305 31.0618Z" fill="#4D4D4D"/>
<path d="M23.4695 31.0618C25.6441 31.0618 27.407 29.2989 27.407 27.1243C27.407 24.9496 25.6441 23.1868 23.4695 23.1868C21.2949 23.1868 19.532 24.9496 19.532 27.1243C19.532 29.2989 21.2949 31.0618 23.4695 31.0618Z" fill="#4D4D4D"/>
<path d="M34.6775 22.1001V23.0451C34.6775 23.8464 34.0219 24.502 33.2068 24.502H30.7912C30.0824 24.502 29.3205 23.9763 29.3205 22.8088V22.1001H34.6775Z" fill="#F0A880"/>
<path d="M37.9063 14.6188C37.9063 16.3906 37.1188 18.0444 35.7407 19.1607C35.1894 19.6076 34.8351 20.1844 34.7169 20.7888H29.297C29.2044 20.1982 28.8776 19.6469 28.3382 19.2276C26.8813 18.0857 26.0544 16.367 26.0938 14.5026C26.1588 11.3782 28.7713 8.79323 31.9075 8.75385C33.4963 8.71448 35.0182 9.3307 36.16 10.4608C37.2901 11.5613 37.9063 13.0438 37.9063 14.6188Z" fill="#F0A880"/>
</g>
<defs>
<filter id="filter0_d_302_453" x="0.5" y="-1.71661e-05" width="58.2597" height="56.9354" filterUnits="userSpaceOnUse" color-interpolation-filters="sRGB">
<feFlood flood-opacity="0" result="BackgroundImageFix"/>
<feColorMatrix in="SourceAlpha" type="matrix" values="0 0 0 0 0 0 0 0 0 0 0 0 0 0 0 0 0 0 127 0" result="hardAlpha"/>
<feOffset dy="4"/>
<feGaussianBlur stdDeviation="2"/>
<feComposite in2="hardAlpha" operator="out"/>
<feColorMatrix type="matrix" values="0 0 0 0 0 0 0 0 0 0 0 0 0 0 0 0 0 0 0.25 0"/>
<feBlend mode="normal" in2="BackgroundImageFix" result="effect1_dropShadow_302_453"/>
<feBlend mode="normal" in="SourceGraphic" in2="effect1_dropShadow_302_453" result="shape"/>
</filter>
</defs>
</svg>
